<svg xmlns="http://www.w3.org/2000/svg" viewBox="0 0 400 225">
  <defs>
    <linearGradient id="bg" x1="0" y1="0" x2="1" y2="1">
      <stop offset="0%" stop-color="#001a12"/>
      <stop offset="100%" stop-color="#002a1e"/>
    </linearGradient>
  </defs>
  <rect width="400" height="225" fill="url(#bg)"/>
  
  <rect x="102" y="92" width="44" height="44" rx="5" fill="#00F5A0" opacity="0.9"/>
  <rect x="150" y="92" width="44" height="44" rx="5" fill="#00F5A0" opacity="0.9"/>
  <rect x="150" y="140" width="44" height="44" rx="5" fill="#00F5A0" opacity="0.9"/>
  <rect x="198" y="140" width="44" height="44" rx="5" fill="#00F5A0" opacity="0.85"/>
  <rect x="198" y="92" width="44" height="44" rx="5" fill="#00D9F5" opacity="0.85"/>
  <rect x="198" y="44" width="44" height="44" rx="5" fill="#00D9F5" opacity="0.85"/>
  <rect x="246" y="44" width="44" height="44" rx="5" fill="#00D9F5" opacity="0.8"/>
  <rect x="246" y="92" width="44" height="44" rx="5" fill="#7F00FF" opacity="0.85"/>
  <rect x="246" y="140" width="44" height="44" rx="5" fill="#7F00FF" opacity="0.85"/>
  <rect x="294" y="140" width="44" height="44" rx="5" fill="#7F00FF" opacity="0.8"/>
  <g stroke="rgba(0,245,160,0.06)" stroke-width="1">
    <line x1="54" y1="0" x2="54" y2="225"/><line x1="102" y1="0" x2="102" y2="225"/>
    <line x1="150" y1="0" x2="150" y2="225"/><line x1="198" y1="0" x2="198" y2="225"/>
    <line x1="246" y1="0" x2="246" y2="225"/><line x1="294" y1="0" x2="294" y2="225"/>
    <line x1="0" y1="44" x2="400" y2="44"/><line x1="0" y1="92" x2="400" y2="92"/>
    <line x1="0" y1="140" x2="400" y2="140"/>
  </g>
  <text x="200" y="212" text-anchor="middle" font-family="monospace" font-size="10" fill="rgba(0,245,160,0.4)" letter-spacing="3">NEON BLOCKS</text>
</svg>