<svg xmlns="http://www.w3.org/2000/svg" viewBox="0 0 400 225">
  <defs>
    <linearGradient id="bg" x1="0" y1="0" x2="1" y2="1">
      <stop offset="0%" stop-color="#060010"/>
      <stop offset="100%" stop-color="#120020"/>
    </linearGradient>
  </defs>
  <rect width="400" height="225" fill="url(#bg)"/>
  
  <line x1="80" y1="112" x2="160" y2="60" stroke="#BF5AF2" stroke-width="1.5" opacity="0.5"/>
  <line x1="80" y1="112" x2="160" y2="112" stroke="#BF5AF2" stroke-width="2" opacity="0.7"/>
  <line x1="80" y1="112" x2="160" y2="164" stroke="#BF5AF2" stroke-width="1.5" opacity="0.4"/>
  <line x1="160" y1="60" x2="240" y2="40" stroke="#E100FF" stroke-width="1.5" opacity="0.6"/>
  <line x1="160" y1="60" x2="240" y2="88" stroke="#E100FF" stroke-width="1.5" opacity="0.5"/>
  <line x1="160" y1="112" x2="240" y2="88" stroke="#E100FF" stroke-width="2.5" opacity="0.9"/>
  <line x1="160" y1="112" x2="240" y2="136" stroke="#E100FF" stroke-width="1.5" opacity="0.5"/>
  <line x1="160" y1="164" x2="240" y2="136" stroke="#E100FF" stroke-width="1.5" opacity="0.4"/>
  <line x1="160" y1="164" x2="240" y2="185" stroke="#E100FF" stroke-width="1" opacity="0.3"/>
  <line x1="240" y1="40" x2="320" y2="112" stroke="#7F00FF" stroke-width="1.5" opacity="0.5"/>
  <line x1="240" y1="88" x2="320" y2="112" stroke="#7F00FF" stroke-width="2.5" opacity="0.9"/>
  <line x1="240" y1="136" x2="320" y2="112" stroke="#7F00FF" stroke-width="1.5" opacity="0.5"/>
  <line x1="240" y1="185" x2="320" y2="112" stroke="#7F00FF" stroke-width="1" opacity="0.3"/>
  <circle cx="80" cy="112" r="11" fill="#BF5AF2"/>
  <circle cx="160" cy="60" r="8" fill="#E100FF"/>
  <circle cx="160" cy="112" r="13" fill="#E100FF"/>
  <circle cx="160" cy="164" r="8" fill="#E100FF"/>
  <circle cx="240" cy="40" r="7" fill="#7F00FF"/>
  <circle cx="240" cy="88" r="11" fill="#7F00FF"/>
  <circle cx="240" cy="136" r="9" fill="#7F00FF"/>
  <circle cx="240" cy="185" r="7" fill="#7F00FF"/>
  <circle cx="320" cy="112" r="13" fill="#BF5AF2"/>
  <text x="200" y="212" text-anchor="middle" font-family="monospace" font-size="10" fill="rgba(191,90,242,0.45)" letter-spacing="3">NEURAL GRID</text>
</svg>