<svg xmlns="http://www.w3.org/2000/svg" viewBox="0 0 400 225">
  <defs>
    <linearGradient id="bg" x1="0" y1="0" x2="1" y2="1">
      <stop offset="0%" stop-color="#0d0700"/>
      <stop offset="100%" stop-color="#1a0e00"/>
    </linearGradient>
  </defs>
  <rect width="400" height="225" fill="url(#bg)"/>
  
  <defs><linearGradient id="sunG" x1="0" y1="0" x2="0" y2="1"><stop offset="0%" stop-color="#ff6f00" stop-opacity="0.5"/><stop offset="100%" stop-color="#f7971e" stop-opacity="0"/></linearGradient></defs>
  <ellipse cx="350" cy="50" rx="60" ry="60" fill="#ff6f00" opacity="0.12"/>
  <rect width="400" height="225" fill="url(#sunG)"/>
  <rect x="30" y="162" width="90" height="12" rx="6" fill="#f7971e" opacity="0.7"/>
  <rect x="145" y="132" width="75" height="10" rx="5" fill="#ff6f00" opacity="0.65"/>
  <rect x="240" y="105" width="95" height="12" rx="6" fill="#f7971e" opacity="0.7"/>
  <rect x="300" y="158" width="65" height="10" rx="5" fill="#ff6f00" opacity="0.55"/>
  <rect x="70" y="78" width="65" height="10" rx="5" fill="#f7971e" opacity="0.55"/>
  <rect x="162" y="55" width="80" height="10" rx="5" fill="#ff6f00" opacity="0.6"/>
  <polygon points="200,86 185,108 215,108" fill="white" opacity="0.95"/>
  <line x1="185" y1="108" x2="178" y2="118" stroke="rgba(255,255,255,0.6)" stroke-width="2"/>
  <line x1="215" y1="108" x2="222" y2="118" stroke="rgba(255,255,255,0.6)" stroke-width="2"/>
  <line x1="200" y1="108" x2="200" y2="132" stroke="#FF9F0A" stroke-width="2.5" opacity="0.9"/>
  <circle cx="200" cy="133" r="4" fill="#FF9F0A" opacity="0.6"/>
  <text x="200" y="212" text-anchor="middle" font-family="monospace" font-size="10" fill="rgba(247,151,30,0.45)" letter-spacing="3">SKYFOLD AVIARY</text>
</svg>