<svg xmlns="http://www.w3.org/2000/svg" viewBox="0 0 400 225">
  <defs>
    <linearGradient id="bg" x1="0" y1="0" x2="1" y2="1">
      <stop offset="0%" stop-color="#0a0000"/>
      <stop offset="100%" stop-color="#150202"/>
    </linearGradient>
  </defs>
  <rect width="400" height="225" fill="url(#bg)"/>
  
  <rect x="0" y="163" width="400" height="62" fill="#1a0303"/>
  <rect x="0" y="161" width="400" height="4" fill="#e52d27" opacity="0.6"/>
  <g stroke="white" stroke-width="1" opacity="0.2">
    <line x1="280" y1="20" x2="400" y2="20"/><line x1="260" y1="48" x2="400" y2="48"/>
    <line x1="295" y1="76" x2="400" y2="76"/><line x1="270" y1="104" x2="400" y2="104"/>
    <line x1="285" y1="132" x2="400" y2="132"/>
  </g>
  <rect x="295" y="106" width="18" height="55" fill="#e52d27" rx="2" opacity="0.85"/>
  <rect x="240" y="128" width="18" height="33" fill="#b31217" rx="2" opacity="0.75"/>
  <rect x="350" y="120" width="14" height="41" fill="#e52d27" rx="2" opacity="0.6"/>
  <rect x="88" y="128" width="26" height="34" fill="#FF453A" rx="3"/>
  <rect x="88" y="118" width="26" height="18" fill="#FF6B6B" rx="3"/>
  <rect x="91" y="120" width="7" height="7" fill="#000" rx="1"/>
  <rect x="106" y="120" width="7" height="7" fill="#000" rx="1"/>
  <rect x="88" y="152" width="10" height="14" fill="#e52d27" rx="2"/>
  <rect x="104" y="152" width="10" height="14" fill="#e52d27" rx="2"/>
  <line x1="114" y1="144" x2="294" y2="144" stroke="#FF453A" stroke-width="3" opacity="0.85"/>
  <ellipse cx="295" cy="144" rx="10" ry="10" fill="#FF453A" opacity="0.35"/>
  <text x="200" y="212" text-anchor="middle" font-family="monospace" font-size="10" fill="rgba(229,45,39,0.45)" letter-spacing="3">VOIDRUNNER</text>
</svg>